# xmcd
#
# Track frame offsets:
#	150
#	13837
#	27877
#	43274
#	55506
#	76826
#	90628
#	104878
#	123712
#	139615
#	153347
#	174365
#	190221
#	202682
#	212396
#	223726
#	238805
#	251622
#	264494
#	280222
#	299241
#
# Disc length: 4159 seconds
#
# Revision: 1
# Processed by: cddbd v1.5.2PL0 Copyright (c) Steve Scherf et al.
# Submitted via: audiograbber 1.83.01
#
DISCID=36103d15
DTITLE=Diamond Back of Texas - Diamond Back of Texas 011
DYEAR=2007
DGENRE=Country
TTITLE0=Phillip Clarkson - There's No Johnny Cash, Outlaws Or Trains
TTITLE1=Lenaye Pearson - Only For You
TTITLE2=Michael Lusk - Tell Me
TTITLE3=Marylynn McConnell - If My Heart Had Windows
TTITLE4=Mak Kaylor - You Make Or House A Home
TTITLE5=Mitch Snow - Pitch A Fit
TTITLE6=Terry Robichaud, Smith - Leaving On My Mind
TTITLE7=Stan Lawhorn - One More Beer, One More Tear, One More Time
TTITLE8=William Ray - Cold Shoulders
TTITLE9=Captain 'T' (Tom Hunnicutt) - Joanie
TTITLE10=Michael Lusk - Feels Like Rain
TTITLE11=John Waddell jr. - Pappa Said
TTITLE12=Colean McKillop - Listen To Your Heart
TTITLE13=B. Jeff Stone - Theme From The 'Dukes Of Hazard'
TTITLE14=Bruce Greaves - Candy Kisses
TTITLE15=Judy Welden - Get Lost Mr. Bad News
TTITLE16=Ren Lehman - What Can I Say
TTITLE17=Bruce Greaves - City Lights
TTITLE18=Don Vinette - Drinking To Remember
TTITLE19=Captain 'T' (Tom Hunnicutt) - Helena
TTITLE20=B. Jeff and Patricia Stone - Swinging Doors
EXTD=
EXTT0=
EXTT1=
EXTT2=
EXTT3=
EXTT4=
EXTT5=
EXTT6=
EXTT7=
EXTT8=
EXTT9=
EXTT10=
EXTT11=
EXTT12=
EXTT13=
EXTT14=
EXTT15=
EXTT16=
EXTT17=
EXTT18=
EXTT19=
EXTT20=
PLAYORDER=
